<?xml version="1.0" standalone="no"?>
<!DOCTYPE svg PUBLIC "-//W3C//DTD SVG 20010904//EN"
 "http://www.w3.org/TR/2001/REC-SVG-20010904/DTD/svg10.dtd">
<svg version="1.0" xmlns="http://www.w3.org/2000/svg"
 width="524.000000pt" height="335.000000pt" viewBox="0 0 524.000000 335.000000"
 preserveAspectRatio="xMidYMid meet">

<g transform="translate(0.000000,335.000000) scale(0.100000,-0.100000)"
fill="#000000" stroke="none">
<path d="M0 1675 l0 -1675 2620 0 2620 0 0 1675 0 1675 -2620 0 -2620 0 0
-1675z m3475 885 l0 -225 -875 0 -875 0 -3 215 c-1 118 0 220 3 227 3 11 175
13 877 11 l873 -3 0 -225z m85 -1208 c0 -685 -3 -901 -12 -910 -17 -17 -1879
-17 -1896 0 -9 9 -12 225 -12 910 l0 898 960 0 960 0 0 -898z"/>
<path d="M3270 2630 c-15 -15 -20 -33 -20 -75 0 -42 5 -60 20 -75 47 -47 110
-4 110 75 0 79 -63 122 -110 75z m70 -14 c9 -12 5 -21 -22 -45 -41 -38 -48
-38 -48 -2 0 49 43 78 70 47z m20 -69 c0 -51 -52 -86 -79 -53 -9 11 -4 20 26
44 46 38 53 39 53 9z"/>
</g>
</svg>
